<?xml version="1.0" standalone="no"?><!DOCTYPE svg PUBLIC "-//W3C//DTD SVG 1.1//EN" "http://www.w3.org/Graphics/SVG/1.1/DTD/svg11.dtd"><svg t="1760526046501" class="icon" viewBox="0 0 1024 1024" version="1.1" xmlns="http://www.w3.org/2000/svg" p-id="9016" xmlns:xlink="http://www.w3.org/1999/xlink" width="200" height="200"><path d="M643.4816 664.7296m-248.7296 0a248.7296 248.7296 0 1 0 497.4592 0 248.7296 248.7296 0 1 0-497.4592 0Z" fill="#CBB7FF" p-id="9017" data-spm-anchor-id="a313x.search_index.0.i20.c3033a81hPn9Gx" class=""></path><path d="M428.9536 724.1216c0-137.3696 111.36-248.7296 248.7296-248.7296 79.9232 0 150.9888 37.7344 196.4544 96.3072-36.864-91.2384-126.208-155.6992-230.656-155.6992-137.3696 0-248.7296 111.36-248.7296 248.7296 0 57.4464 19.5584 110.336 52.2752 152.4224a247.6288 247.6288 0 0 1-18.0736-93.0304z" fill="#CBB7FF" p-id="9018" data-spm-anchor-id="a313x.search_index.0.i18.c3033a81hPn9Gx" class=""></path><path d="M460.7488 800.1536c0-137.3696 111.36-248.7296 248.7296-248.7296 70.912 0 134.8608 29.7472 180.1216 77.4144-2.8672-19.8656-8.1408-38.9632-15.4112-57.0368-45.4656-58.624-116.5312-96.4096-196.5056-96.4096-137.3696 0-248.7296 111.36-248.7296 248.7296 0 33.0752 6.6048 64.5632 18.3296 93.3888 5.0688 6.5024 10.496 12.8 16.1792 18.7392-1.6896-11.776-2.7136-23.808-2.7136-36.096z" fill="#CBB7FF" p-id="9019" data-spm-anchor-id="a313x.search_index.0.i17.c3033a81hPn9Gx" class=""></path><path d="M709.4784 551.424c-137.3696 0-248.7296 111.36-248.7296 248.7296 0 12.2368 0.9216 24.2176 2.6624 35.9936 10.8032 11.3152 22.6304 21.6576 35.3792 30.7712 6.7584-131.328 115.3536-235.776 248.3712-235.776 54.016 0 103.936 17.3056 144.6912 46.592 0.2048-4.3008 0.3584-8.704 0.3584-13.056 0-12.2368-0.9216-24.2176-2.6112-35.9936-45.312-47.5648-109.2096-77.2608-180.1216-77.2608z" fill="#CBB7FF" p-id="9020" data-spm-anchor-id="a313x.search_index.0.i16.c3033a81hPn9Gx" class=""></path><path d="M882.8928 732.16c4.9152-17.4592 8.0384-35.6864 9.0112-54.528a247.48032 247.48032 0 0 0-144.7424-46.4896c-133.0176 0-241.6128 104.3968-248.3712 235.776 13.8752 9.9328 28.8256 18.5344 44.6464 25.4976 29.3888-104.6016 125.3888-181.2992 239.4112-181.2992 35.584 0 69.4272 7.5776 100.0448 21.0432z" fill="#CBB7FF" p-id="9021" data-spm-anchor-id="a313x.search_index.0.i15.c3033a81hPn9Gx" class=""></path><path d="M782.848 711.1168c-113.9712 0-210.0224 76.6976-239.4112 181.2992 18.5344 8.1408 38.2464 14.1312 58.8288 17.5616 42.2912-77.056 124.1088-129.28 218.2144-129.28 14.08 0 27.8016 1.2288 41.2672 3.4816 8.96-16.3328 16.0768-33.7408 21.1968-52.0704-30.6688-13.4656-64.512-20.992-100.096-20.992z" fill="#CBB7FF" p-id="9022" data-spm-anchor-id="a313x.search_index.0.i19.c3033a81hPn9Gx" class=""></path><path d="M518.6048 923.4944H256.5632c-85.248 0-154.624-69.376-154.624-154.6752V506.7776c0-113.152 44.5952-219.0336 125.5424-298.1376C308.4288 129.5872 415.232 87.552 528.64 90.2144c106.9568 2.5088 207.9232 45.9264 284.2624 122.2656s119.7568 177.3056 122.2656 284.2624c2.6624 113.2544-39.424 220.2112-118.4768 301.1584-79.0528 80.9984-184.9344 125.5936-298.0864 125.5936z m-0.0512-751.4624c-88.0128 0-170.752 33.6384-233.8304 95.2832C219.648 330.8032 183.808 415.8976 183.808 506.7776v262.0416c0 40.0896 32.6144 72.7552 72.704 72.7552h262.0416c90.9312 0 175.9744-35.84 239.5136-100.864 63.5392-65.024 97.3312-150.9888 95.1808-242.0224-4.1984-178.944-147.6608-322.3552-326.6048-326.6048-2.6624-0.0512-5.376-0.0512-8.0896-0.0512z" fill="#2c2c2c" p-id="9023" data-spm-anchor-id="a313x.search_index.0.i23.c3033a81hPn9Gx" class=""></path><path d="M523.5712 521.6768m-58.8288 0a58.8288 58.8288 0 1 0 117.6576 0 58.8288 58.8288 0 1 0-117.6576 0Z" fill="#2c2c2c" p-id="9024" data-spm-anchor-id="a313x.search_index.0.i25.c3033a81hPn9Gx" class=""></path><path d="M344.9856 521.6768m-58.8288 0a58.8288 58.8288 0 1 0 117.6576 0 58.8288 58.8288 0 1 0-117.6576 0Z" fill="#2c2c2c" p-id="9025" data-spm-anchor-id="a313x.search_index.0.i26.c3033a81hPn9Gx" class=""></path><path d="M698.112 521.6768m-58.8288 0a58.8288 58.8288 0 1 0 117.6576 0 58.8288 58.8288 0 1 0-117.6576 0Z" fill="#2c2c2c" p-id="9026" data-spm-anchor-id="a313x.search_index.0.i24.c3033a81hPn9Gx" class=""></path></svg>